{
	"asset":{
		"version":"2.0",
		"generator":""
	},
	"scenes":[{
		"nodes":[0,
		1]
	}],
	"nodes":[{
		"name":"back ",
		"mesh":0,
		"translation":[0.0,
		0.0,
		-0.09360110014677048],
		"rotation":[0.0,
		0.0,
		0.0,
		-1.0],
		"scale":[1.0,
		1.0,
		1.0]
	},
	{
		"name":"frame",
		"translation":[0.0,
		0.0,
		-0.0695435032248497],
		"rotation":[0.0,
		0.0,
		0.0,
		-1.0],
		"scale":[1.0,
		1.0,
		1.0],
		"children":[2,
		3]
	},
	{
		"name":"frame-badge texture",
		"mesh":1
	},
	{
		"name":"frame-gold",
		"mesh":2
	}],
	"meshes":[{
		"name":"back ",
		"primitives":[{
			"attributes":{
				"POSITION":1,
				"NORMAL":2,
				"TEXCOORD_0":3
			},
			"indices":0,
			"material":0
		}]
	},
	{
		"name":"frame-badge texture",
		"primitives":[{
			"attributes":{
				"POSITION":5,
				"NORMAL":6,
				"TEXCOORD_0":7
			},
			"indices":4,
			"material":1
		}]
	},
	{
		"name":"frame-gold",
		"primitives":[{
			"attributes":{
				"POSITION":9,
				"NORMAL":10,
				"TEXCOORD_0":11
			},
			"indices":8,
			"material":2
		}]
	}],
	"accessors":[{
		"bufferView":0,
		"type":"SCALAR",
		"componentType":5123,
		"count":780,
		"byteOffset":0,
		"min":[0],
		"max":[779]
	},
	{
		"bufferView":1,
		"type":"VEC3",
		"componentType":5126,
		"count":780,
		"byteOffset":0,
		"min":[-0.05595783889293671,
		-0.06309182196855545,
		0.08824422955513],
		"max":[0.05595780536532402,
		0.06309182196855545,
		0.09024422615766525]
	},
	{
		"bufferView":1,
		"type":"VEC3",
		"componentType":5126,
		"count":780,
		"byteOffset":12,
		"min":[-1.0,
		-0.9998512864112854,
		-1.0],
		"max":[1.0,
		0.9998512864112854,
		1.0]
	},
	{
		"bufferView":1,
		"type":"VEC2",
		"componentType":5126,
		"count":780,
		"byteOffset":24,
		"min":[0.12883995473384858,
		0.10100902616977692],
		"max":[0.8596393465995789,
		0.8702713251113892]
	},
	{
		"bufferView":2,
		"type":"SCALAR",
		"componentType":5123,
		"count":8304,
		"byteOffset":0,
		"min":[0],
		"max":[8303]
	},
	{
		"bufferView":3,
		"type":"VEC3",
		"componentType":5126,
		"count":8304,
		"byteOffset":0,
		"min":[-0.06847736239433289,
		-0.07754816114902497,
		0.06572362035512924],
		"max":[0.06847736239433289,
		0.07754816114902497,
		0.07572361826896668]
	},
	{
		"bufferView":3,
		"type":"VEC3",
		"componentType":5126,
		"count":8304,
		"byteOffset":12,
		"min":[-1.0,
		-0.9998512864112854,
		-1.0],
		"max":[1.0,
		0.9998512864112854,
		1.0]
	},
	{
		"bufferView":3,
		"type":"VEC2",
		"componentType":5126,
		"count":8304,
		"byteOffset":24,
		"min":[0.12661711871623994,
		0.08606775104999542],
		"max":[0.8603973984718323,
		0.8932255506515503]
	},
	{
		"bufferView":4,
		"type":"SCALAR",
		"componentType":5123,
		"count":396,
		"byteOffset":0,
		"min":[0],
		"max":[395]
	},
	{
		"bufferView":5,
		"type":"VEC3",
		"componentType":5126,
		"count":396,
		"byteOffset":0,
		"min":[-0.06847736239433289,
		-0.07754816114902497,
		0.06572362035512924],
		"max":[0.06847736239433289,
		0.07754816114902497,
		0.07572361826896668]
	},
	{
		"bufferView":5,
		"type":"VEC3",
		"componentType":5126,
		"count":396,
		"byteOffset":12,
		"min":[-1.0,
		-0.9986617565155029,
		0.0],
		"max":[1.0,
		0.9986617565155029,
		0.0]
	},
	{
		"bufferView":5,
		"type":"VEC2",
		"componentType":5126,
		"count":396,
		"byteOffset":24,
		"min":[0.12661711871623994,
		0.08606775104999542],
		"max":[0.8603973984718323,
		0.8932255506515503]
	}],
	"bufferViews":[{
		"buffer":0,
		"byteOffset":0,
		"byteLength":1560,
		"target":34963
	},
	{
		"buffer":0,
		"byteOffset":1560,
		"byteLength":24960,
		"target":34962,
		"byteStride":32
	},
	{
		"buffer":1,
		"byteOffset":0,
		"byteLength":16608,
		"target":34963
	},
	{
		"buffer":1,
		"byteOffset":16608,
		"byteLength":265728,
		"target":34962,
		"byteStride":32
	},
	{
		"buffer":2,
		"byteOffset":0,
		"byteLength":792,
		"target":34963
	},
	{
		"buffer":2,
		"byteOffset":792,
		"byteLength":12672,
		"target":34962,
		"byteStride":32
	}],
	"buffers":[{
		"uri":"data:application/octet-stream;base64,",
		"byteLength":26520
	},
	{
		"uri":"data:application/octet-stream;base64,",
		"byteLength":282336
	},
	{
		"uri":"data:application/octet-stream;base64,",
		"byteLength":13464
	}],
	"materials":[{
		"pbrMetallicRoughness":{
			"baseColorFactor":[0.8,
			0.8,
			0.8,
			1.0],
			"metallicFactor":0.0,
			"roughnessFactor":0.5
		},
		"emissiveFactor":[0.0,
		0.0,
		0.0],
		"alphaMode":"OPAQUE",
		"doubleSided":false,
		"name":"badge back "
	},
	{
		"pbrMetallicRoughness":{
			"baseColorFactor":[0.8,
			0.8,
			0.8,
			1.0],
			"metallicFactor":1.0,
			"roughnessFactor":1.0
		},
		"emissiveFactor":[0.0,
		0.0,
		0.0],
		"alphaMode":"OPAQUE",
		"doubleSided":false,
		"name":"badge texture"
	},
	{
		"pbrMetallicRoughness":{
			"baseColorFactor":[0.8,
			0.8,
			0.8,
			1.0],
			"metallicFactor":0.0,
			"roughnessFactor":0.5
		},
		"emissiveFactor":[0.0,
		0.0,
		0.0],
		"alphaMode":"OPAQUE",
		"doubleSided":false,
		"name":"gold"
	}]
}